<svg width="35" height="35" viewBox="0 0 35 35" fill="none" xmlns="http://www.w3.org/2000/svg">
<path d="M2.91666 17.5C2.91666 12.0003 2.91666 9.25041 4.6252 7.54185C6.33376 5.83331 9.08361 5.83331 14.5833 5.83331H20.4167C25.9163 5.83331 28.6663 5.83331 30.3747 7.54185C32.0833 9.25041 32.0833 12.0003 32.0833 17.5C32.0833 22.9996 32.0833 25.7496 30.3747 27.4581C28.6663 29.1666 25.9163 29.1666 20.4167 29.1666H14.5833C9.08361 29.1666 6.33376 29.1666 4.6252 27.4581C2.91666 25.7496 2.91666 22.9996 2.91666 17.5Z" stroke="#141B34" stroke-width="1.5" stroke-linecap="round" stroke-linejoin="round"/>
<path d="M2.91666 14.5833H9.03761C10.0797 14.5833 10.6007 14.5833 11.068 14.7466C11.3534 14.8464 11.6215 14.9899 11.8628 15.172C12.2579 15.4703 12.547 15.9037 13.125 16.7708C13.703 17.6379 13.9921 18.0714 14.3872 18.3696C14.6284 18.5517 14.8966 18.6952 15.182 18.795C15.6492 18.9583 16.1703 18.9583 17.2124 18.9583H17.7876C18.8297 18.9583 19.3508 18.9583 19.818 18.795C20.1034 18.6952 20.3716 18.5517 20.6128 18.3696C21.0079 18.0714 21.2969 17.6379 21.875 16.7708C22.4531 15.9037 22.7421 15.4703 23.1372 15.172C23.3784 14.9899 23.6466 14.8464 23.932 14.7466C24.3992 14.5833 24.9203 14.5833 25.9624 14.5833H32.0833" stroke="#141B34" stroke-width="1.5" stroke-linecap="round" stroke-linejoin="round"/>
</svg>
