<svg width="28" height="29" viewBox="0 0 28 29" fill="none" xmlns="http://www.w3.org/2000/svg">
<path d="M0.750055 14.4572V18.0833C0.750055 22.8497 0.750055 25.2329 2.2308 26.7137C3.71153 28.1944 6.09475 28.1944 10.8612 28.1944H16.6389C21.4053 28.1944 23.7885 28.1944 25.2694 26.7137C26.7501 25.2329 26.7501 22.8497 26.7501 18.0833V14.4572C26.7501 12.0287 26.7501 10.8145 26.236 9.76341C25.7219 8.71231 24.7635 7.96685 22.8466 6.47594L19.9577 4.22902C16.9756 1.90967 15.4847 0.75 13.7501 0.75C12.0154 0.75 10.5245 1.90967 7.54244 4.22902L4.65354 6.47594C2.73664 7.96685 1.7782 8.71231 1.26413 9.76341C0.750055 10.8145 0.750055 12.0287 0.750055 14.4572Z" stroke="#141B34" stroke-width="1.5" stroke-linecap="round" stroke-linejoin="round"/>
<path d="M18.0834 28.1945V20.9722C18.0834 18.9295 18.0834 17.9081 17.4488 17.2735C16.8142 16.6389 15.7928 16.6389 13.7501 16.6389C11.7073 16.6389 10.6859 16.6389 10.0513 17.2735C9.41672 17.9081 9.41672 18.9295 9.41672 20.9722V28.1945" stroke="#141B34" stroke-width="1.5" stroke-linecap="round" stroke-linejoin="round"/>
</svg>
