<svg width="38" height="38" viewBox="0 0 38 38" fill="none" xmlns="http://www.w3.org/2000/svg">
<path d="M4.75 9.5C4.75 7.26083 4.75 6.14124 5.44562 5.44562C6.14124 4.75 7.26083 4.75 9.5 4.75C11.7392 4.75 12.8588 4.75 13.5544 5.44562C14.25 6.14124 14.25 7.26083 14.25 9.5C14.25 11.7392 14.25 12.8588 13.5544 13.5544C12.8588 14.25 11.7392 14.25 9.5 14.25C7.26083 14.25 6.14124 14.25 5.44562 13.5544C4.75 12.8588 4.75 11.7392 4.75 9.5Z" stroke="#141B34" stroke-width="1.5"/>
<path d="M4.75 28.5C4.75 26.2609 4.75 25.1413 5.44562 24.4456C6.14124 23.75 7.26083 23.75 9.5 23.75C11.7392 23.75 12.8588 23.75 13.5544 24.4456C14.25 25.1413 14.25 26.2609 14.25 28.5C14.25 30.7392 14.25 31.8587 13.5544 32.5544C12.8588 33.25 11.7392 33.25 9.5 33.25C7.26083 33.25 6.14124 33.25 5.44562 32.5544C4.75 31.8587 4.75 30.7392 4.75 28.5Z" stroke="#141B34" stroke-width="1.5"/>
<path d="M4.75 19H14.25" stroke="#141B34" stroke-width="1.5" stroke-linecap="round" stroke-linejoin="round"/>
<path d="M19 4.75V12.6667" stroke="#141B34" stroke-width="1.5" stroke-linecap="round" stroke-linejoin="round"/>
<path d="M23.75 9.5C23.75 7.26083 23.75 6.14124 24.4456 5.44562C25.1413 4.75 26.2609 4.75 28.5 4.75C30.7392 4.75 31.8587 4.75 32.5544 5.44562C33.25 6.14124 33.25 7.26083 33.25 9.5C33.25 11.7392 33.25 12.8588 32.5544 13.5544C31.8587 14.25 30.7392 14.25 28.5 14.25C26.2609 14.25 25.1413 14.25 24.4456 13.5544C23.75 12.8588 23.75 11.7392 23.75 9.5Z" stroke="#141B34" stroke-width="1.5"/>
<path d="M33.25 19H23.75C21.5109 19 20.3913 19 19.6956 19.6956C19 20.3913 19 21.5109 19 23.75M19 28.1346V32.5193M23.75 23.75V26.125C23.75 28.4151 24.9909 28.5 26.9167 28.5C27.7911 28.5 28.5 29.2089 28.5 30.0833M25.3333 33.25H23.75M28.5 23.75C30.7392 23.75 31.8587 23.75 32.5544 24.4467C33.25 25.1432 33.25 26.2645 33.25 28.5068C33.25 30.7493 33.25 31.8704 32.5544 32.5671C32.0467 33.0755 31.3131 33.213 30.0833 33.25" stroke="#141B34" stroke-width="1.5" stroke-linecap="round"/>
</svg>
