<svg width="30" height="30" viewBox="0 0 30 30" fill="none" xmlns="http://www.w3.org/2000/svg">
<path d="M27.6737 8.02257L26.9745 6.80905C26.4456 5.8913 26.1813 5.43242 25.7314 5.24943C25.2814 5.06646 24.7726 5.21084 23.755 5.49962L22.0264 5.98652C21.3767 6.13635 20.695 6.05135 20.1018 5.74655L19.6245 5.4712C19.1158 5.14538 18.7245 4.66499 18.5079 4.10032L18.0349 2.68736C17.7238 1.75233 17.5682 1.28482 17.1979 1.01741C16.8277 0.75 16.3359 0.75 15.3521 0.75H13.7728C12.7893 0.75 12.2974 0.75 11.9271 1.01741C11.5568 1.28482 11.4013 1.75233 11.0902 2.68736L10.6171 4.10032C10.4005 4.66499 10.0093 5.14538 9.50056 5.4712L9.02332 5.74655C8.43009 6.05135 7.74846 6.13635 7.09876 5.98652L5.3701 5.49962C4.35245 5.21084 3.84364 5.06646 3.39374 5.24943C2.94383 5.43242 2.67943 5.8913 2.15059 6.80905L1.45135 8.02257C0.955641 8.88284 0.707781 9.31298 0.755891 9.77088C0.803987 10.2288 1.1358 10.5978 1.79941 11.3358L3.26005 12.9687C3.61705 13.4207 3.8705 14.2083 3.8705 14.9165C3.8705 15.625 3.61713 16.4124 3.26009 16.8644L1.79941 18.4974C1.1358 19.2355 0.804001 19.6044 0.755891 20.0624C0.707781 20.5203 0.955641 20.9504 1.45135 21.8106L2.15057 23.0241C2.6794 23.9418 2.94383 24.4008 3.39374 24.5837C3.84364 24.7667 4.35247 24.6224 5.37013 24.3335L7.09871 23.8466C7.74852 23.6967 8.43027 23.7819 9.02357 24.0867L9.50075 24.3621C10.0093 24.688 10.4005 25.1682 10.6171 25.7329L11.0902 27.146C11.4013 28.081 11.5568 28.5485 11.9271 28.816C12.2974 29.0833 12.7893 29.0833 13.7728 29.0833H15.3521C16.3359 29.0833 16.8277 29.0833 17.1979 28.816C17.5682 28.5485 17.7238 28.081 18.0349 27.146L18.5081 25.7329C18.7245 25.1682 19.1157 24.688 19.6244 24.3621L20.1015 24.0867C20.6948 23.7819 21.3765 23.6967 22.0264 23.8466L23.755 24.3335C24.7726 24.6224 25.2814 24.7667 25.7314 24.5837C26.1813 24.4008 26.4456 23.9418 26.9745 23.0241L27.6737 21.8106C28.1694 20.9504 28.4172 20.5203 28.3692 20.0624C28.321 19.6044 27.9892 19.2355 27.3257 18.4974L25.8649 16.8644C25.5079 16.4124 25.2545 15.625 25.2545 14.9165C25.2545 14.2083 25.5081 13.4207 25.8649 12.9687L27.3257 11.3358C27.9892 10.5978 28.321 10.2288 28.3692 9.77088C28.4172 9.31298 28.1694 8.88284 27.6737 8.02257Z" stroke="#141B34" stroke-width="1.5" stroke-linecap="round"/>
<path d="M19.736 14.75C19.736 17.4884 17.516 19.7084 14.7776 19.7084C12.0392 19.7084 9.81934 17.4884 9.81934 14.75C9.81934 12.0116 12.0392 9.79169 14.7776 9.79169C17.516 9.79169 19.736 12.0116 19.736 14.75Z" stroke="#141B34" stroke-width="1.5"/>
</svg>
